<svg xmlns="http://www.w3.org/2000/svg" xmlns:xlink="http://www.w3.org/1999/xlink" width="4000" zoomAndPan="magnify" viewBox="0 0 3000 1499.999933" height="2000" preserveAspectRatio="xMidYMid meet" version="1.0"><defs><g/><clipPath id="2c5db721a9"><rect x="0" width="2778" y="0" height="1500"/></clipPath></defs><g transform="matrix(1, 0, 0, 1, 114, 0.000000000000112861)"><g clip-path="url(#2c5db721a9)"><g fill="#074026" fill-opacity="1"><g transform="translate(19.866753, 543.869118)"><g><path d="M 310.65625 0 L 19.453125 0 L 19.453125 -434.53125 L 295.734375 -434.53125 C 342.859375 -434.53125 378.09375 -425.554688 401.4375 -407.609375 C 424.789062 -389.671875 436.46875 -363.625 436.46875 -329.46875 C 436.46875 -301.789062 428.359375 -278.875 412.140625 -260.71875 C 395.929688 -242.5625 367.941406 -232.613281 328.171875 -230.875 L 328.171875 -224.390625 C 371.835938 -222.660156 404.15625 -212.5 425.125 -193.90625 C 446.09375 -175.320312 456.578125 -150.894531 456.578125 -120.625 C 456.578125 -83.875 445.226562 -54.582031 422.53125 -32.75 C 399.832031 -10.914062 362.539062 0 310.65625 0 Z M 140.734375 -324.921875 L 140.734375 -269.796875 L 282.765625 -269.796875 C 295.304688 -269.796875 303.738281 -271.847656 308.0625 -275.953125 C 312.382812 -280.066406 314.546875 -287.09375 314.546875 -297.03125 C 314.546875 -306.976562 311.84375 -314.113281 306.4375 -318.4375 C 301.03125 -322.757812 292.0625 -324.921875 279.53125 -324.921875 Z M 140.734375 -169.921875 L 140.734375 -109.609375 L 295.09375 -109.609375 C 309.789062 -109.609375 319.84375 -111.660156 325.25 -115.765625 C 330.65625 -119.867188 333.359375 -127.976562 333.359375 -140.09375 C 333.359375 -152.195312 330.757812 -160.191406 325.5625 -164.078125 C 320.375 -167.972656 310.21875 -169.921875 295.09375 -169.921875 Z M 140.734375 -169.921875 "/></g></g></g><g fill="#074026" fill-opacity="1"><g transform="translate(455.667151, 543.869118)"><g><path d="M 141.390625 0 L 19.453125 0 L 19.453125 -434.53125 L 273.03125 -434.53125 C 330.539062 -434.53125 374.101562 -422.960938 403.71875 -399.828125 C 433.332031 -376.691406 448.140625 -343.941406 448.140625 -301.578125 C 448.140625 -267.421875 438.953125 -240.179688 420.578125 -219.859375 C 402.203125 -199.535156 372.265625 -186.78125 330.765625 -181.59375 L 330.765625 -175.109375 C 353.242188 -169.484375 369.347656 -161.15625 379.078125 -150.125 C 388.804688 -139.101562 397.773438 -125.378906 405.984375 -108.953125 L 459.8125 0 L 319.078125 0 L 267.203125 -106.359375 C 262.015625 -117.171875 256.609375 -125.601562 250.984375 -131.65625 C 245.367188 -137.707031 238.019531 -141.921875 228.9375 -144.296875 C 219.851562 -146.679688 207.316406 -147.875 191.328125 -147.875 L 141.390625 -147.875 Z M 141.390625 -324.921875 L 141.390625 -238.671875 L 271.734375 -238.671875 C 289.460938 -238.671875 302 -241.265625 309.34375 -246.453125 C 316.695312 -251.640625 320.375 -263.53125 320.375 -282.125 C 320.375 -299.414062 316.695312 -310.867188 309.34375 -316.484375 C 302 -322.109375 289.460938 -324.921875 271.734375 -324.921875 Z M 141.390625 -324.921875 "/></g></g></g><g fill="#074026" fill-opacity="1"><g transform="translate(888.225045, 543.869118)"><g><path d="M 130.359375 0 L -6.484375 0 L 180.9375 -434.53125 L 355.40625 -434.53125 L 543.484375 0 L 403.390625 0 L 370.3125 -80.421875 L 164.078125 -80.421875 Z M 235.421875 -250.984375 L 210.125 -190.03125 L 325.578125 -190.03125 L 300.28125 -250.984375 L 271.734375 -324.28125 L 263.3125 -324.28125 Z M 235.421875 -250.984375 "/></g></g></g><g fill="#074026" fill-opacity="1"><g transform="translate(1397.956198, 543.869118)"><g><path d="M 343.078125 0 L 167.96875 0 L -6.484375 -434.53125 L 140.734375 -434.53125 L 252.9375 -123.21875 L 261.359375 -123.21875 L 370.96875 -434.53125 L 517.546875 -434.53125 Z M 343.078125 0 "/></g></g></g><g fill="#074026" fill-opacity="1"><g transform="translate(1881.746788, 543.869118)"><g><path d="M 405.34375 0 L 19.453125 0 L 19.453125 -434.53125 L 405.34375 -434.53125 L 405.34375 -324.921875 L 141.390625 -324.921875 L 141.390625 -273.03125 L 395.609375 -273.03125 L 395.609375 -164.078125 L 141.390625 -164.078125 L 141.390625 -109.609375 L 405.34375 -109.609375 Z M 405.34375 0 "/></g></g></g><g fill="#074026" fill-opacity="1"><g transform="translate(2274.74507, 543.869118)"><g><path d="M 141.390625 0 L 19.453125 0 L 19.453125 -434.53125 L 149.171875 -434.53125 L 269.796875 -271.734375 L 333.359375 -171.859375 L 341.78125 -171.859375 L 335.953125 -266.546875 L 335.953125 -434.53125 L 457.875 -434.53125 L 457.875 0 L 328.171875 0 L 199.75 -167.328125 L 144.625 -252.9375 L 136.1875 -252.9375 L 141.390625 -169.921875 Z M 141.390625 0 "/></g></g></g><g fill="#074026" fill-opacity="1"><g transform="translate(1.54966, 1313.820207)"><g><path d="M 394.21875 10.5625 C 324.46875 10.5625 262.640625 -4.40625 208.734375 -34.34375 C 154.835938 -64.289062 112.738281 -106.566406 82.4375 -161.171875 C 52.132812 -215.773438 36.984375 -280.070312 36.984375 -354.0625 C 36.984375 -428.039062 52.132812 -492.332031 82.4375 -546.9375 C 112.738281 -601.539062 154.835938 -643.816406 208.734375 -673.765625 C 262.640625 -703.710938 324.46875 -718.6875 394.21875 -718.6875 C 465.382812 -718.6875 527.914062 -703.710938 581.8125 -673.765625 C 635.71875 -643.816406 677.816406 -601.539062 708.109375 -546.9375 C 738.410156 -492.332031 753.5625 -428.039062 753.5625 -354.0625 C 753.5625 -290.644531 742.109375 -234.097656 719.203125 -184.421875 C 696.304688 -134.753906 664.070312 -93.710938 622.5 -61.296875 C 580.9375 -28.890625 532.320312 -7.398438 476.65625 3.171875 L 584.453125 149.015625 L 493.5625 149.015625 L 397.390625 10.5625 Z M 394.21875 -62.359375 C 484.40625 -62.359375 553.628906 -87.019531 601.890625 -136.34375 C 650.160156 -185.664062 674.296875 -258.238281 674.296875 -354.0625 C 674.296875 -450.59375 650.160156 -523.34375 601.890625 -572.3125 C 553.628906 -621.28125 484.40625 -645.765625 394.21875 -645.765625 C 304.738281 -645.765625 236.039062 -621.28125 188.125 -572.3125 C 140.21875 -523.34375 116.265625 -450.59375 116.265625 -354.0625 C 116.265625 -258.238281 140.21875 -185.664062 188.125 -136.34375 C 236.039062 -87.019531 304.738281 -62.359375 394.21875 -62.359375 Z M 394.21875 -62.359375 "/></g></g></g><g fill="#074026" fill-opacity="1"><g transform="translate(747.710794, 1313.820207)"><g><path d="M 377.3125 10.5625 C 279.375 10.5625 201.691406 -15.679688 144.265625 -68.171875 C 86.835938 -120.660156 58.125 -195.523438 58.125 -292.765625 L 58.125 -708.109375 L 133.171875 -708.109375 L 133.171875 -295.921875 C 133.171875 -214.898438 153.25 -155.890625 193.40625 -118.890625 C 233.570312 -81.898438 294.875 -63.40625 377.3125 -63.40625 C 459.75 -63.40625 521.046875 -81.898438 561.203125 -118.890625 C 601.367188 -155.890625 621.453125 -214.898438 621.453125 -295.921875 L 621.453125 -708.109375 L 696.484375 -708.109375 L 696.484375 -292.765625 C 696.484375 -195.523438 667.945312 -120.660156 610.875 -68.171875 C 553.8125 -15.679688 475.957031 10.5625 377.3125 10.5625 Z M 377.3125 10.5625 "/></g></g></g><g fill="#074026" fill-opacity="1"><g transform="translate(1457.937964, 1313.820207)"><g><path d="M 138.453125 0 L 63.40625 0 L 63.40625 -708.109375 L 138.453125 -708.109375 Z M 138.453125 0 "/></g></g></g><g fill="#074026" fill-opacity="1"><g transform="translate(1614.356452, 1313.820207)"><g><path d="M 587.625 0 L 63.40625 0 L 63.40625 -708.109375 L 138.453125 -708.109375 L 138.453125 -68.703125 L 587.625 -68.703125 Z M 587.625 0 "/></g></g></g><g fill="#074026" fill-opacity="1"><g transform="translate(2178.733321, 1313.820207)"><g><path d="M 587.625 0 L 63.40625 0 L 63.40625 -708.109375 L 138.453125 -708.109375 L 138.453125 -68.703125 L 587.625 -68.703125 Z M 587.625 0 "/></g></g></g></g></g></svg>